#define blynk_not_ok_width 11
#define blynk_not_ok_height 9
static unsigned char blynk_not_ok_bits[] = {
   0x00, 0x00, 0xfe, 0x03, 0xe2, 0x02, 0xda, 0x02, 0xe2, 0x02, 0xda, 0x03,
   0xe2, 0x02, 0xfe, 0x03, 0x00, 0x00 };
