#define mqtt_not_ok_width 11
#define mqtt_not_ok_height 9
static unsigned char mqtt_not_ok_bits[] = {
   0x00, 0x00, 0xfe, 0x03, 0xba, 0x02, 0x92, 0x02, 0xaa, 0x02, 0xba, 0x03,
   0xba, 0x02, 0xfe, 0x03, 0x00, 0x00 };
