#define smiley_brew_ready_rotate_width 45
#define smiley_brew_ready_rotate_height 45
static unsigned char smiley_brew_ready_rotate_bits[] = {
   0x00, 0x00, 0x00, 0x00, 0x00, 0x00, 0x00, 0x00, 0xfc, 0x07, 0x00, 0x00,
   0x00, 0x80, 0xff, 0x3f, 0x00, 0x00, 0x00, 0xe0, 0x07, 0xfc, 0x00, 0x00,
   0x00, 0xf8, 0x00, 0xe0, 0x03, 0x00, 0x00, 0x3c, 0x00, 0x80, 0x07, 0x00,
   0x00, 0x0e, 0x00, 0x00, 0x0e, 0x00, 0x00, 0x07, 0x00, 0x00, 0x1c, 0x00,
   0x80, 0x03, 0x00, 0x00, 0x38, 0x00, 0xc0, 0x01, 0x00, 0x00, 0x70, 0x00,
   0xe0, 0x00, 0x00, 0x00, 0x60, 0x00, 0x60, 0x00, 0x00, 0x00, 0xc0, 0x00,
   0x70, 0x00, 0x00, 0x00, 0xc0, 0x00, 0x30, 0xc0, 0x07, 0xf8, 0x80, 0x01,
   0x30, 0xe0, 0x0f, 0xfc, 0x81, 0x01, 0x38, 0xf0, 0x1f, 0xfe, 0x83, 0x03,
   0x18, 0x78, 0x3c, 0x8f, 0x07, 0x03, 0x18, 0x38, 0x38, 0x07, 0x07, 0x03,
   0x18, 0x10, 0x10, 0x02, 0x02, 0x03, 0x18, 0x00, 0x00, 0x00, 0x00, 0x03,
   0x18, 0x00, 0x00, 0x00, 0x00, 0x03, 0x18, 0x00, 0x00, 0x00, 0x00, 0x03,
   0x18, 0x00, 0x00, 0x00, 0x00, 0x03, 0x18, 0x00, 0x00, 0x00, 0x00, 0x03,
   0x18, 0x00, 0x00, 0x00, 0x00, 0x03, 0x18, 0x04, 0x00, 0x00, 0x04, 0x03,
   0x38, 0x0c, 0x00, 0x00, 0x86, 0x03, 0x30, 0x1c, 0x00, 0x00, 0x87, 0x01,
   0x30, 0x18, 0x00, 0x80, 0x83, 0x01, 0x70, 0x78, 0x00, 0xc0, 0xc1, 0x00,
   0x60, 0xf8, 0x00, 0xe0, 0xe0, 0x00, 0xc0, 0xb8, 0x07, 0x7c, 0x60, 0x00,
   0xc0, 0x19, 0xff, 0x3f, 0x70, 0x00, 0x80, 0x9f, 0xfb, 0x1f, 0x38, 0x00,
   0x00, 0x9f, 0xf1, 0x03, 0x1c, 0x00, 0x00, 0x9c, 0x31, 0x00, 0x0e, 0x00,
   0x00, 0x18, 0x38, 0x80, 0x07, 0x00, 0x00, 0x38, 0x1c, 0xe0, 0x01, 0x00,
   0x00, 0xf0, 0x0f, 0xfe, 0x00, 0x00, 0x00, 0xe0, 0xf7, 0x3f, 0x00, 0x00,
   0x00, 0x00, 0xfc, 0x03, 0x00, 0x00, 0x00, 0x00, 0x00, 0x00, 0x00, 0x00,
   0x00, 0x00, 0x00, 0x00, 0x00, 0x00, 0x00, 0x00, 0x00, 0x00, 0x00, 0x00,
   0x00, 0x00, 0x00, 0x00, 0x00, 0x00 };
