#define smiley_steam_rotate_width 45
#define smiley_steam_rotate_height 45
static unsigned char smiley_steam_rotate_bits[] = {
   0x00, 0x00, 0x00, 0x00, 0x00, 0x00, 0x00, 0x00, 0x00, 0x60, 0x8c, 0x01,
   0x00, 0x00, 0x00, 0xc0, 0x18, 0x03, 0x00, 0x00, 0x00, 0x80, 0x31, 0x06,
   0x00, 0x00, 0x00, 0x80, 0x31, 0x06, 0x00, 0x00, 0x00, 0x80, 0x31, 0x06,
   0x00, 0x00, 0x00, 0xc0, 0x18, 0x03, 0x00, 0x00, 0x00, 0x40, 0x8c, 0x01,
   0x00, 0x00, 0xf8, 0x07, 0x8c, 0x01, 0x00, 0x00, 0xff, 0x3f, 0x8c, 0x01,
   0x00, 0xc0, 0x03, 0x78, 0x18, 0x03, 0x00, 0xf0, 0x00, 0xe0, 0x11, 0x06,
   0x00, 0x38, 0x00, 0x80, 0x03, 0x06, 0x00, 0x1c, 0x00, 0x00, 0x07, 0x06,
   0x00, 0x0c, 0x00, 0x00, 0x0e, 0x03, 0x00, 0x06, 0x00, 0x00, 0x0c, 0x01,
   0x00, 0x03, 0x00, 0x00, 0x18, 0x00, 0x00, 0x83, 0x07, 0x3c, 0x18, 0x00,
   0x80, 0xc1, 0x0f, 0x7e, 0x30, 0x00, 0x80, 0x61, 0x1c, 0xc7, 0x30, 0x00,
   0x80, 0x70, 0x18, 0xc3, 0x21, 0x00, 0xc0, 0x20, 0x10, 0x81, 0x60, 0x00,
   0xc0, 0x00, 0x00, 0x00, 0x60, 0x00, 0xc0, 0x00, 0x00, 0x00, 0x60, 0x00,
   0xc0, 0x00, 0x00, 0x00, 0x60, 0x00, 0xc0, 0x00, 0x00, 0x00, 0x60, 0x00,
   0xc0, 0x00, 0x00, 0x00, 0x60, 0x00, 0xc0, 0x00, 0x00, 0x00, 0x60, 0x00,
   0x80, 0x10, 0x00, 0x00, 0x61, 0x00, 0x80, 0x31, 0x00, 0x80, 0x31, 0x00,
   0x80, 0x61, 0x00, 0xc0, 0x31, 0x00, 0x00, 0xe3, 0x00, 0xe0, 0x30, 0x00,
   0x00, 0xe3, 0x01, 0x70, 0x18, 0x00, 0x00, 0xbe, 0x07, 0x3c, 0x0c, 0x00,
   0x00, 0x3e, 0xff, 0x1f, 0x0c, 0x00, 0x00, 0x98, 0xff, 0x07, 0x06, 0x00,
   0x00, 0x98, 0x71, 0x80, 0x03, 0x00, 0x00, 0x98, 0x31, 0xc0, 0x01, 0x00,
   0x00, 0x98, 0x1c, 0xf0, 0x00, 0x00, 0x00, 0x18, 0xfc, 0x3f, 0x00, 0x00,
   0x00, 0xf0, 0xff, 0x07, 0x00, 0x00, 0x00, 0xe0, 0x00, 0x00, 0x00, 0x00,
   0x00, 0x00, 0x00, 0x00, 0x00, 0x00, 0x00, 0x00, 0x00, 0x00, 0x00, 0x00,
   0x00, 0x00, 0x00, 0x00, 0x00, 0x00 };
