#define smiley_coldstart_rotate_width 45
#define smiley_coldstart_rotate_height 45
static unsigned char smiley_coldstart_rotate_bits[] = {
   0x00, 0x00, 0x00, 0x00, 0x00, 0x00, 0x00, 0x00, 0x00, 0x00, 0x00, 0x00,
   0x00, 0x00, 0xe0, 0x01, 0x00, 0x00, 0x00, 0x00, 0xff, 0x1f, 0x00, 0x00,
   0x00, 0xc0, 0xff, 0xff, 0x00, 0x00, 0x00, 0xf0, 0x01, 0xe0, 0x03, 0x00,
   0x00, 0x78, 0x00, 0x80, 0x07, 0x00, 0x00, 0x1c, 0x00, 0x00, 0x0e, 0x00,
   0x00, 0x0e, 0x00, 0x00, 0x1c, 0x00, 0x00, 0x07, 0x00, 0x00, 0x38, 0x00,
   0x80, 0x03, 0x00, 0x00, 0x70, 0x00, 0xc0, 0x01, 0x00, 0x00, 0xe0, 0x00,
   0xc0, 0x00, 0x00, 0x00, 0xc0, 0x00, 0x60, 0x00, 0x00, 0x00, 0xc0, 0x01,
   0x70, 0x00, 0x00, 0x00, 0x80, 0x01, 0x30, 0x00, 0x00, 0x00, 0x00, 0x03,
   0x30, 0x10, 0x10, 0x01, 0x01, 0x03, 0x38, 0x38, 0xb8, 0x83, 0x03, 0x03,
   0x18, 0x78, 0xbc, 0xc7, 0x03, 0x06, 0x18, 0xf0, 0x1f, 0xff, 0x01, 0x06,
   0x18, 0xe0, 0x0f, 0xfe, 0x00, 0x06, 0x18, 0xc0, 0x07, 0x7c, 0x00, 0x06,
   0x18, 0x00, 0x00, 0x00, 0x00, 0x06, 0x18, 0x00, 0x00, 0x00, 0x00, 0x06,
   0x18, 0x00, 0x00, 0x00, 0x00, 0x06, 0x18, 0x00, 0x00, 0x00, 0x00, 0x06,
   0x18, 0x00, 0x00, 0x00, 0x00, 0x06, 0x38, 0x00, 0x1e, 0x00, 0x00, 0x07,
   0x30, 0x00, 0x3f, 0x00, 0x06, 0x03, 0x30, 0xc0, 0xf3, 0x80, 0x07, 0x03,
   0x70, 0xe0, 0xc0, 0xe7, 0x81, 0x03, 0x60, 0x70, 0x00, 0xff, 0x80, 0x01,
   0xe0, 0x30, 0x00, 0x3c, 0xc0, 0x01, 0xc0, 0x00, 0x00, 0x00, 0xe0, 0x00,
   0x80, 0x01, 0x00, 0x00, 0x60, 0x00, 0x80, 0x03, 0x00, 0x00, 0x70, 0x00,
   0x00, 0x07, 0x00, 0x00, 0x38, 0x00, 0x00, 0x1e, 0x00, 0x00, 0x1e, 0x00,
   0x00, 0x3c, 0x00, 0x00, 0x0f, 0x00, 0x00, 0xf0, 0x00, 0xc0, 0x03, 0x00,
   0x00, 0xe0, 0x07, 0xfc, 0x01, 0x00, 0x00, 0x80, 0xff, 0x7f, 0x00, 0x00,
   0x00, 0x00, 0xf8, 0x07, 0x00, 0x00, 0x00, 0x00, 0x00, 0x00, 0x00, 0x00,
   0x00, 0x00, 0x00, 0x00, 0x00, 0x00 };
