#define smiley_steam_width 45
#define smiley_steam_height 45
static unsigned char smiley_steam_bits[] = {
   0x00, 0x00, 0x00, 0x00, 0x00, 0x00, 0x00, 0x00, 0x00, 0x80, 0x31, 0x06,
   0x00, 0x00, 0x00, 0xc0, 0x18, 0x03, 0x00, 0x00, 0x00, 0x60, 0x8c, 0x01,
   0x00, 0x00, 0x00, 0x60, 0x8c, 0x01, 0x00, 0x00, 0x00, 0x60, 0x8c, 0x01,
   0x00, 0x00, 0x00, 0xc0, 0x18, 0x03, 0x00, 0x00, 0x00, 0x80, 0x31, 0x06,
   0x00, 0x00, 0xf8, 0x87, 0x31, 0x06, 0x00, 0x00, 0xff, 0x1f, 0x31, 0x06,
   0x00, 0xc0, 0x03, 0x78, 0x18, 0x03, 0x00, 0xf0, 0x00, 0xe0, 0x89, 0x01,
   0x00, 0x38, 0x00, 0x80, 0x83, 0x01, 0x00, 0x1c, 0x00, 0x00, 0x87, 0x01,
   0x00, 0x0c, 0x00, 0x00, 0x0e, 0x03, 0x00, 0x06, 0x00, 0x00, 0x0c, 0x02,
   0x00, 0x03, 0x06, 0x0c, 0x18, 0x00, 0x00, 0x03, 0x0f, 0x1e, 0x18, 0x00,
   0x80, 0x01, 0x0f, 0x1e, 0x30, 0x00, 0x80, 0x01, 0x0f, 0x1e, 0x30, 0x00,
   0x80, 0x00, 0x0f, 0x1e, 0x20, 0x00, 0xc0, 0x00, 0x06, 0x0c, 0x60, 0x00,
   0xc0, 0x00, 0x00, 0x00, 0x60, 0x00, 0xc0, 0x00, 0x00, 0x00, 0x60, 0x00,
   0xc0, 0x00, 0x00, 0x00, 0x60, 0x00, 0xc0, 0x00, 0x00, 0x00, 0x60, 0x00,
   0xc0, 0x00, 0x00, 0x00, 0x60, 0x00, 0xc0, 0x00, 0x00, 0x00, 0x60, 0x00,
   0x80, 0x10, 0x00, 0x00, 0x61, 0x00, 0x80, 0x31, 0x00, 0x80, 0x31, 0x00,
   0x80, 0x61, 0x00, 0xc0, 0x31, 0x00, 0x00, 0xe3, 0x00, 0xe0, 0x30, 0x00,
   0x00, 0xc3, 0x01, 0x70, 0x18, 0x00, 0x00, 0xe6, 0x07, 0x3c, 0x0c, 0x00,
   0x00, 0x6e, 0xff, 0x1f, 0x0c, 0x00, 0x00, 0x3c, 0xff, 0x07, 0x06, 0x00,
   0x00, 0x38, 0x73, 0x80, 0x03, 0x00, 0x00, 0x98, 0x33, 0xc0, 0x01, 0x00,
   0x00, 0x98, 0x19, 0xf0, 0x00, 0x00, 0x00, 0x98, 0xf9, 0x3f, 0x00, 0x00,
   0x00, 0x98, 0xfc, 0x07, 0x00, 0x00, 0x00, 0x18, 0x0c, 0x00, 0x00, 0x00,
   0x00, 0xf0, 0x07, 0x00, 0x00, 0x00, 0x00, 0xe0, 0x03, 0x00, 0x00, 0x00,
   0x00, 0x00, 0x00, 0x00, 0x00, 0x00 };
