#define wifi_not_ok_width 11
#define wifi_not_ok_height 9
static unsigned char wifi_not_ok_bits[] = {
   0x00, 0x00, 0xfe, 0x03, 0xe2, 0x02, 0xde, 0x02, 0xb2, 0x02, 0xae, 0x03,
   0xaa, 0x02, 0xfe, 0x03, 0x00, 0x00 };
