<?xml version="1.0" encoding="UTF-8" standalone="no"?>
<svg
   xmlns:dc="http://purl.org/dc/elements/1.1/"
   xmlns:cc="http://creativecommons.org/ns#"
   xmlns:rdf="http://www.w3.org/1999/02/22-rdf-syntax-ns#"
   xmlns:svg="http://www.w3.org/2000/svg"
   xmlns="http://www.w3.org/2000/svg"
   xmlns:sodipodi="http://sodipodi.sourceforge.net/DTD/sodipodi-0.dtd"
   xmlns:inkscape="http://www.inkscape.org/namespaces/inkscape"
   width="210mm"
   height="297mm"
   viewBox="0 0 210 297"
   version="1.1"
   id="svg8"
   inkscape:version="1.0.2-2 (e86c870879, 2021-01-15)"
   sodipodi:docname="drawingEmpty.svg">
  <defs
     id="defs2" />
  <sodipodi:namedview
     id="base"
     pagecolor="#ffffff"
     bordercolor="#666666"
     borderopacity="1.0"
     inkscape:pageopacity="0.0"
     inkscape:pageshadow="2"
     inkscape:zoom="1.4"
     inkscape:cx="433.14605"
     inkscape:cy="533.79875"
     inkscape:document-units="mm"
     inkscape:current-layer="layer1"
     inkscape:document-rotation="0"
     showgrid="false"
     inkscape:window-width="1267"
     inkscape:window-height="1032"
     inkscape:window-x="104"
     inkscape:window-y="0"
     inkscape:window-maximized="0" />
  <metadata
     id="metadata5">
    <rdf:RDF>
      <cc:Work
         rdf:about="">
        <dc:format>image/svg+xml</dc:format>
        <dc:type
           rdf:resource="http://purl.org/dc/dcmitype/StillImage" />
        <dc:title></dc:title>
      </cc:Work>
    </rdf:RDF>
  </metadata>
  <g
     inkscape:label="Layer 1"
     inkscape:groupmode="layer"
     id="layer1">
    <rect
       style="fill:#ffffff;stroke:#ffffff;stroke-width:0.709858"
       id="rect849"
       width="93.228752"
       height="127.07127"
       x="68.037865"
       y="66.147987"
       inkscape:export-xdpi="6.4062495"
       inkscape:export-ydpi="6.4062495" />
    <path
       style="fill:#000000;stroke-width:0.264583"
       d="m 123.98305,192.57198 c -0.64417,-0.64416 -0.64944,-0.69041 -0.64944,-5.70057 0,-6.7599 -0.38351,-6.35 5.9411,-6.35 h 4.64224 v -7.30528 -7.30529 l -0.99219,-2.00755 c -0.93909,-1.90013 -0.99191,-2.1428 -0.98707,-4.53482 0.004,-2.22167 0.0979,-2.72963 0.77264,-4.20077 l 0.76754,-1.6735 -3.46839,-3.46839 -3.4684,-3.46839 -1.20095,1.107 c -2.14944,1.98129 -1.89873,2.12969 -9.87231,-5.84388 -6.39796,-6.39797 -6.95087,-7.0233 -6.95087,-7.86127 0,-0.8186 0.38117,-1.29156 3.7804,-4.69079 3.39923,-3.39923 3.87219,-3.7804 4.69079,-3.7804 0.83797,0 1.4633,0.55291 7.86126,6.95087 7.97339,7.97339 7.82512,7.72293 5.84425,9.87192 l -1.10664,1.20056 2.16497,2.16497 2.16497,2.16496 v -6.29387 -6.29388 l 0.64943,-0.64943 c 0.35719,-0.35719 0.83344,-0.64944 1.05833,-0.64944 0.36455,0 0.4089,-1.83365 0.4089,-16.9041 0,-14.32204 -0.0641,-17.241984 -0.41936,-19.116144 C 133.5359,86.971827 123.85497,78.92142 112.75028,78.92142 c -10.8195,0 -20.765061,8.04348 -22.736971,18.388536 -0.16643,0.87313 -0.35971,1.85539 -0.42952,2.18281 -0.11965,0.561254 -0.0427,0.595324 1.34536,0.595324 2.58029,0 2.48005,-0.272924 3.80205,10.3517 1.200015,9.64438 1.201035,9.92227 0.0388,10.54431 -0.69047,0.36953 -22.61551,0.36953 -23.30599,0 -1.16229,-0.62204 -1.16126,-0.89993 0.0388,-10.54431 1.31942,-10.603874 1.22767,-10.3517 3.76615,-10.3517 1.56595,0 1.74579,-0.202404 1.76321,-1.984384 0.004,-0.43656 0.23538,-1.86531 0.51358,-3.175 3.04505,-14.335058 13.85791,-24.947009 28.623181,-28.091339 3.12806,-0.666134 10.05166,-0.653743 13.32832,0.02385 12.84045,2.65534 23.2396,11.710518 27.21972,23.701866 1.90788,5.748123 1.83392,4.795003 1.94557,25.069267 0.0881,16.0063 0.15071,18.32239 0.49493,18.32239 0.21672,0 0.68628,0.29225 1.04347,0.64944 l 0.64943,0.64943 v 8.77252 8.77252 l 0.99219,2.00755 c 0.93829,1.89851 0.99219,2.14558 0.99219,4.54855 0,2.40296 -0.0539,2.65003 -0.99219,4.54854 l -0.99219,2.00755 v 7.30529 7.30528 h 4.64223 c 6.32462,0 5.9411,-0.4099 5.9411,6.35 0,5.01016 -0.005,5.05641 -0.64943,5.70057 l -0.64943,0.64943 H 142.3837 124.63257 Z m 33.21723,-5.70057 v -2.11666 h -14.81667 -14.81666 v 2.11666 2.11667 h 14.81666 14.81667 z m -10.58333,-12.03854 c 0,-3.1287 -0.0298,-5.68713 -0.0661,-5.6854 -0.0364,0.002 -0.72099,0.17891 -1.52135,0.39374 -1.84493,0.49519 -3.44674,0.49519 -5.29167,0 -0.80036,-0.21483 -1.48497,-0.39201 -1.52135,-0.39374 -0.0364,-0.002 -0.0661,2.5567 -0.0661,5.6854 v 5.68854 h 4.23333 4.23334 z m -2.03462,-9.54881 c 2.25634,-0.76881 4.15128,-3.49807 4.15128,-5.97902 0,-3.24971 -3.04387,-6.30029 -6.28642,-6.30029 -3.36195,0 -6.41358,2.99771 -6.41358,6.30029 0,1.71281 0.59298,3.04175 1.97542,4.42717 1.9222,1.92634 4.02043,2.4217 6.5733,1.55185 z m -4.84455,-16.11577 c 0.80037,-0.21483 1.99099,-0.3906 2.64583,-0.3906 0.65485,0 1.84547,0.17577 2.64584,0.3906 0.80036,0.21482 1.48497,0.392 1.52135,0.39373 0.0364,0.002 0.0661,-2.5567 0.0661,-5.6854 v -5.68854 h -4.23334 -4.23333 v 5.68854 c 0,3.1287 0.0298,5.68713 0.0661,5.6854 0.0364,-0.002 0.72099,-0.17891 1.52135,-0.39373 z m -14.6807,-7.27975 1.5746,-1.59121 -4.82316,-4.82316 -4.82316,-4.82317 -1.65182,1.65182 -1.65181,1.65181 4.75704,4.76256 c 2.61637,2.61941 4.82154,4.76256 4.90037,4.76256 0.0788,0 0.8519,-0.71605 1.71794,-1.59121 z m 19.44164,-24.93328 c -0.002,-18.728884 -0.0918,-20.122664 -1.59024,-24.595094 -2.70657,-8.078569 -8.2493,-14.54802 -15.75341,-18.387292 -17.14114,-8.769799 -37.816041,-0.464503 -44.390391,17.832022 -0.639,1.77834 -1.26232,4.53601 -1.6181,7.15871 l -0.15254,1.124484 h 2.12809 c 1.47687,0 2.15635,-0.101214 2.2204,-0.330734 0.0508,-0.1819 0.23405,-1.25737 0.40729,-2.38994 0.84553,-5.527582 3.70288,-10.801576 8.14555,-15.034712 3.507365,-3.341949 7.386091,-5.506671 12.108041,-6.757493 2.21945,-0.587923 3.24277,-0.705218 6.35,-0.727851 5.39272,-0.03928 8.8329,0.77181 13.25803,3.125841 2.80528,1.492327 4.77194,3.006472 7.11488,5.477791 3.22872,3.405633 5.39217,7.299073 6.6718,12.006884 l 0.71916,2.64583 0.0884,17.925514 0.0885,17.92552 h 2.10305 2.10304 l -0.002,-16.99948 z m -53.287091,-0.92604 c -0.0847,-0.5457 -0.39351,-2.95672 -0.68634,-5.35781 -0.29283,-2.40109 -0.60168,-4.81211 -0.68634,-5.35781 l -0.15392,-0.99218 h -6.56807 -6.56807 l -0.15392,0.99218 c -0.0847,0.5457 -0.39351,2.95672 -0.68634,5.35781 -0.29283,2.40109 -0.60168,4.81211 -0.68634,5.35781 l -0.15393,0.99219 h 8.2486 8.24859 z m -10.47592,55.84286 c -1.58418,-0.26488 -4.05796,-1.25093 -5.53766,-2.20731 -2.96999,-1.9196 -5.09917,-4.70361 -6.26619,-8.19336 -0.71495,-2.13792 -0.65587,-5.94525 0.12726,-8.20208 1.43677,-4.14046 4.77672,-10.01667 9.41016,-16.55595 3.07749,-4.34332 3.58462,-4.8753 4.64768,-4.8753 1.04685,0 1.53523,0.50345 4.43518,4.57199 4.75733,6.67442 8.06561,12.47522 9.491425,16.64248 1.81746,5.31187 0.34693,10.95978 -3.910935,15.02093 -3.07244,2.93049 -8.19728,4.50082 -12.39692,3.7986 z m 6.72805,-5.06135 c 2.34574,-1.09771 3.93575,-2.64315 5.05542,-4.91372 1.73337,-3.51512 1.51237,-6.14578 -0.92233,-10.97867 -2.00803,-3.98596 -7.94995,-13.25943 -8.4959,-13.25943 -0.4052,0 -6.37984,9.22887 -7.9661,12.30502 -2.09942,4.07132 -2.71358,6.09659 -2.50998,8.27697 0.31705,3.39514 2.45609,6.63252 5.42946,8.2173 2.0841,1.11082 3.22462,1.36204 5.65774,1.24626 1.58807,-0.0756 2.43389,-0.27706 3.75169,-0.89373 z m -6.87505,-3.85069 c -1.56447,-0.7285 -3.07976,-2.38078 -3.51469,-3.83242 -0.56081,-1.87184 -0.54441,-1.88954 1.7516,-1.88954 2.05385,0 2.05937,0.002 2.36457,0.81043 0.19397,0.51391 0.60243,0.92237 1.11633,1.11634 0.80854,0.30519 0.81044,0.31072 0.81044,2.36457 0,1.95928 -0.0287,2.05854 -0.59531,2.05607 -0.32743,-0.001 -1.19725,-0.28287 -1.93294,-0.62545 z m -0.18373,-10.00107 c -0.83674,-0.45398 -1.52135,-0.94989 -1.52135,-1.10203 0,-0.35803 2.04521,-3.80389 2.38082,-4.01131 0.24617,-0.15214 3.44001,1.84701 3.44001,2.15324 0,0.36281 -2.2758,3.79461 -2.51354,3.79031 -0.14552,-0.003 -0.94919,-0.37622 -1.78594,-0.83021 z"
       id="path847"
       sodipodi:nodetypes="csscccscscccssssssscccccssscssssssscsccssscsscccssscccssccccccccccccccccsscsccccssssssssscscccscssscccccsssccssscscsssssssccccccccssccccssccccsssssssssssssssssssssscsscssssscs"
       inkscape:export-xdpi="6.4062495"
       inkscape:export-ydpi="6.4062495" />
  </g>
</svg>
